<mxfile host="app.diagrams.net" modified="2021-08-27T07:05:45.926Z" agent="5.0 (Windows NT 10.0; Win64; x64) AppleWebKit/537.36 (KHTML, like Gecko) Chrome/92.0.4515.159 Safari/537.36" etag="ig1kGEmQ6_rGXtoBa-rN" version="14.9.9" type="github" pages="2">
  <diagram id="NVL4B5vyjn-lSfiOAbvK" name="Page-1">
    <mxGraphModel dx="1038" dy="491" grid="1" gridSize="10" guides="1" tooltips="1" connect="1" arrows="1" fold="1" page="1" pageScale="1" pageWidth="1169" pageHeight="1654" math="0" shadow="0">
      <root>
        <mxCell id="0" />
        <mxCell id="1" parent="0" />
        <mxCell id="ZkV1SiRkXl5u3-HkQsEk-1" value="&lt;font style=&quot;font-size: 15px&quot;&gt;业务系统前端页面&lt;/font&gt;" style="rounded=0;whiteSpace=wrap;html=1;" vertex="1" parent="1">
          <mxGeometry x="240" y="110" width="190" height="50" as="geometry" />
        </mxCell>
        <mxCell id="lWgjuawRiGAD_J72jMzx-1" value="&lt;font style=&quot;font-size: 15px&quot;&gt;YOZO客户端&lt;/font&gt;" style="rounded=0;whiteSpace=wrap;html=1;" vertex="1" parent="1">
          <mxGeometry x="560" y="110" width="150" height="50" as="geometry" />
        </mxCell>
        <mxCell id="lWgjuawRiGAD_J72jMzx-3" value="&lt;font style=&quot;font-size: 15px&quot;&gt;业务系统服务端&lt;/font&gt;" style="rounded=0;whiteSpace=wrap;html=1;" vertex="1" parent="1">
          <mxGeometry x="830" y="110" width="190" height="50" as="geometry" />
        </mxCell>
        <mxCell id="lWgjuawRiGAD_J72jMzx-4" value="" style="endArrow=none;html=1;entryX=0.5;entryY=1;entryDx=0;entryDy=0;jumpSize=8;strokeWidth=1.5;exitX=0.579;exitY=0.06;exitDx=0;exitDy=0;exitPerimeter=0;" edge="1" parent="1" source="lWgjuawRiGAD_J72jMzx-42" target="ZkV1SiRkXl5u3-HkQsEk-1">
          <mxGeometry width="50" height="50" relative="1" as="geometry">
            <mxPoint x="330" y="823" as="sourcePoint" />
            <mxPoint x="329.5" y="160" as="targetPoint" />
          </mxGeometry>
        </mxCell>
        <mxCell id="lWgjuawRiGAD_J72jMzx-6" value="" style="endArrow=none;html=1;entryX=0.5;entryY=1;entryDx=0;entryDy=0;jumpSize=8;strokeWidth=1.5;" edge="1" parent="1" source="lWgjuawRiGAD_J72jMzx-44">
          <mxGeometry width="50" height="50" relative="1" as="geometry">
            <mxPoint x="635" y="910" as="sourcePoint" />
            <mxPoint x="634.5" y="160" as="targetPoint" />
          </mxGeometry>
        </mxCell>
        <mxCell id="lWgjuawRiGAD_J72jMzx-7" value="" style="endArrow=none;html=1;entryX=0.5;entryY=1;entryDx=0;entryDy=0;jumpSize=8;strokeWidth=1.5;exitX=0.5;exitY=0;exitDx=0;exitDy=0;" edge="1" parent="1" source="lWgjuawRiGAD_J72jMzx-45">
          <mxGeometry width="50" height="50" relative="1" as="geometry">
            <mxPoint x="925" y="820" as="sourcePoint" />
            <mxPoint x="924.5" y="160" as="targetPoint" />
          </mxGeometry>
        </mxCell>
        <mxCell id="lWgjuawRiGAD_J72jMzx-8" value="" style="endArrow=classic;html=1;strokeWidth=1.5;" edge="1" parent="1">
          <mxGeometry width="50" height="50" relative="1" as="geometry">
            <mxPoint x="336" y="210" as="sourcePoint" />
            <mxPoint x="630" y="210" as="targetPoint" />
          </mxGeometry>
        </mxCell>
        <mxCell id="lWgjuawRiGAD_J72jMzx-9" value="&lt;span style=&quot;font-size: 14px&quot;&gt;自定义URL启动YOZO客户端命令&lt;/span&gt;" style="text;html=1;align=center;verticalAlign=middle;resizable=0;points=[];autosize=1;strokeColor=none;" vertex="1" parent="1">
          <mxGeometry x="360" y="180" width="220" height="20" as="geometry" />
        </mxCell>
        <mxCell id="lWgjuawRiGAD_J72jMzx-14" style="edgeStyle=orthogonalEdgeStyle;rounded=0;jumpSize=8;orthogonalLoop=1;jettySize=auto;html=1;strokeWidth=1.5;" edge="1" parent="1" source="lWgjuawRiGAD_J72jMzx-11">
          <mxGeometry relative="1" as="geometry">
            <mxPoint x="630" y="250" as="targetPoint" />
          </mxGeometry>
        </mxCell>
        <mxCell id="lWgjuawRiGAD_J72jMzx-11" value="&lt;font style=&quot;font-size: 14px&quot;&gt;请求参数&lt;/font&gt;" style="text;html=1;align=center;verticalAlign=middle;resizable=0;points=[];autosize=1;strokeColor=none;" vertex="1" parent="1">
          <mxGeometry x="445" y="240" width="70" height="20" as="geometry" />
        </mxCell>
        <mxCell id="lWgjuawRiGAD_J72jMzx-18" value="" style="endArrow=none;html=1;strokeWidth=1.5;" edge="1" parent="1">
          <mxGeometry width="50" height="50" relative="1" as="geometry">
            <mxPoint x="340" y="250" as="sourcePoint" />
            <mxPoint x="450" y="250" as="targetPoint" />
          </mxGeometry>
        </mxCell>
        <mxCell id="lWgjuawRiGAD_J72jMzx-19" value="&lt;font style=&quot;font-size: 14px&quot;&gt;JsPlugin引擎：请求jsplugins.xml中location获取打包好插件&lt;/font&gt;" style="rounded=0;whiteSpace=wrap;html=1;" vertex="1" parent="1">
          <mxGeometry x="550" y="290" width="170" height="60" as="geometry" />
        </mxCell>
        <mxCell id="lWgjuawRiGAD_J72jMzx-21" value="" style="endArrow=classic;html=1;strokeWidth=1.5;" edge="1" parent="1">
          <mxGeometry width="50" height="50" relative="1" as="geometry">
            <mxPoint x="640" y="240" as="sourcePoint" />
            <mxPoint x="640" y="270" as="targetPoint" />
            <Array as="points">
              <mxPoint x="670" y="240" />
              <mxPoint x="670" y="270" />
            </Array>
          </mxGeometry>
        </mxCell>
        <mxCell id="lWgjuawRiGAD_J72jMzx-22" value="&lt;font style=&quot;font-size: 14px&quot;&gt;调起&lt;/font&gt;" style="text;html=1;align=center;verticalAlign=middle;resizable=0;points=[];autosize=1;strokeColor=none;" vertex="1" parent="1">
          <mxGeometry x="680" y="240" width="40" height="20" as="geometry" />
        </mxCell>
        <mxCell id="lWgjuawRiGAD_J72jMzx-23" value="" style="endArrow=classic;html=1;strokeWidth=1.5;" edge="1" parent="1">
          <mxGeometry width="50" height="50" relative="1" as="geometry">
            <mxPoint x="640" y="400" as="sourcePoint" />
            <mxPoint x="924" y="400" as="targetPoint" />
          </mxGeometry>
        </mxCell>
        <mxCell id="lWgjuawRiGAD_J72jMzx-24" value="&lt;font style=&quot;font-size: 14px&quot;&gt;Get&amp;nbsp; JsPluginLocation&lt;/font&gt;" style="text;html=1;align=center;verticalAlign=middle;resizable=0;points=[];autosize=1;strokeColor=none;" vertex="1" parent="1">
          <mxGeometry x="700" y="370" width="150" height="20" as="geometry" />
        </mxCell>
        <mxCell id="lWgjuawRiGAD_J72jMzx-25" value="" style="endArrow=classic;html=1;strokeWidth=1.5;" edge="1" parent="1">
          <mxGeometry width="50" height="50" relative="1" as="geometry">
            <mxPoint x="920" y="450" as="sourcePoint" />
            <mxPoint x="640" y="450" as="targetPoint" />
          </mxGeometry>
        </mxCell>
        <mxCell id="lWgjuawRiGAD_J72jMzx-28" value="&lt;font style=&quot;font-size: 14px&quot;&gt;取得oaassist&lt;/font&gt;" style="text;html=1;align=center;verticalAlign=middle;resizable=0;points=[];autosize=1;strokeColor=none;" vertex="1" parent="1">
          <mxGeometry x="730" y="430" width="90" height="20" as="geometry" />
        </mxCell>
        <mxCell id="lWgjuawRiGAD_J72jMzx-33" value="&lt;font style=&quot;font-size: 15px&quot;&gt;JsPlugin引擎&lt;br&gt;解析参数&lt;/font&gt;" style="rounded=0;whiteSpace=wrap;html=1;" vertex="1" parent="1">
          <mxGeometry x="575" y="460" width="120" height="60" as="geometry" />
        </mxCell>
        <mxCell id="lWgjuawRiGAD_J72jMzx-35" value="" style="endArrow=classic;html=1;strokeWidth=1.5;" edge="1" parent="1">
          <mxGeometry width="50" height="50" relative="1" as="geometry">
            <mxPoint x="640" y="540" as="sourcePoint" />
            <mxPoint x="640" y="570" as="targetPoint" />
            <Array as="points">
              <mxPoint x="670" y="540" />
              <mxPoint x="670" y="560" />
              <mxPoint x="670" y="570" />
            </Array>
          </mxGeometry>
        </mxCell>
        <mxCell id="lWgjuawRiGAD_J72jMzx-36" value="&lt;font style=&quot;font-size: 14px&quot;&gt;根据参数执行加载插件&lt;/font&gt;" style="text;html=1;align=center;verticalAlign=middle;resizable=0;points=[];autosize=1;strokeColor=none;" vertex="1" parent="1">
          <mxGeometry x="670" y="550" width="160" height="20" as="geometry" />
        </mxCell>
        <mxCell id="lWgjuawRiGAD_J72jMzx-37" value="JsPlugin引擎&lt;br&gt;处理文件流" style="rounded=0;whiteSpace=wrap;html=1;" vertex="1" parent="1">
          <mxGeometry x="575" y="660" width="120" height="60" as="geometry" />
        </mxCell>
        <mxCell id="lWgjuawRiGAD_J72jMzx-38" value="" style="endArrow=classic;html=1;strokeWidth=1.5;" edge="1" parent="1">
          <mxGeometry width="50" height="50" relative="1" as="geometry">
            <mxPoint x="633" y="610" as="sourcePoint" />
            <mxPoint x="917" y="610" as="targetPoint" />
          </mxGeometry>
        </mxCell>
        <mxCell id="lWgjuawRiGAD_J72jMzx-39" value="&lt;font style=&quot;font-size: 14px&quot;&gt;Get&amp;nbsp; 文件获取&lt;/font&gt;" style="text;html=1;align=center;verticalAlign=middle;resizable=0;points=[];autosize=1;strokeColor=none;" vertex="1" parent="1">
          <mxGeometry x="720" y="590" width="100" height="20" as="geometry" />
        </mxCell>
        <mxCell id="lWgjuawRiGAD_J72jMzx-40" value="" style="endArrow=classic;html=1;strokeWidth=1.5;" edge="1" parent="1">
          <mxGeometry width="50" height="50" relative="1" as="geometry">
            <mxPoint x="915" y="650" as="sourcePoint" />
            <mxPoint x="635" y="650" as="targetPoint" />
          </mxGeometry>
        </mxCell>
        <mxCell id="lWgjuawRiGAD_J72jMzx-41" value="&lt;font style=&quot;font-size: 14px&quot;&gt;远程文件流&lt;/font&gt;" style="text;html=1;align=center;verticalAlign=middle;resizable=0;points=[];autosize=1;strokeColor=none;" vertex="1" parent="1">
          <mxGeometry x="725" y="630" width="90" height="20" as="geometry" />
        </mxCell>
        <mxCell id="lWgjuawRiGAD_J72jMzx-42" value="&lt;font style=&quot;font-size: 15px&quot;&gt;业务系统前端页面&lt;/font&gt;" style="rounded=0;whiteSpace=wrap;html=1;" vertex="1" parent="1">
          <mxGeometry x="220" y="827" width="190" height="50" as="geometry" />
        </mxCell>
        <mxCell id="lWgjuawRiGAD_J72jMzx-43" value="" style="endArrow=classic;html=1;strokeWidth=1.5;" edge="1" parent="1">
          <mxGeometry width="50" height="50" relative="1" as="geometry">
            <mxPoint x="920" y="760" as="sourcePoint" />
            <mxPoint x="330" y="760" as="targetPoint" />
          </mxGeometry>
        </mxCell>
        <mxCell id="lWgjuawRiGAD_J72jMzx-44" value="&lt;font style=&quot;font-size: 15px&quot;&gt;YOZO客户端&lt;/font&gt;" style="rounded=0;whiteSpace=wrap;html=1;" vertex="1" parent="1">
          <mxGeometry x="560" y="830" width="150" height="50" as="geometry" />
        </mxCell>
        <mxCell id="lWgjuawRiGAD_J72jMzx-45" value="&lt;font style=&quot;font-size: 15px&quot;&gt;业务系统服务端&lt;/font&gt;" style="rounded=0;whiteSpace=wrap;html=1;" vertex="1" parent="1">
          <mxGeometry x="830" y="827" width="190" height="50" as="geometry" />
        </mxCell>
      </root>
    </mxGraphModel>
  </diagram>
  <diagram id="qSW6wwk_qyhoryWTnu5r" name="Page-2">
    <mxGraphModel dx="1038" dy="491" grid="1" gridSize="10" guides="1" tooltips="1" connect="1" arrows="1" fold="1" page="1" pageScale="1" pageWidth="1169" pageHeight="1654" math="0" shadow="0">
      <root>
        <mxCell id="KuUJkVSwPqc_Ovqm26sK-0" />
        <mxCell id="KuUJkVSwPqc_Ovqm26sK-1" parent="KuUJkVSwPqc_Ovqm26sK-0" />
      </root>
    </mxGraphModel>
  </diagram>
</mxfile>
